<svg xmlns="http://www.w3.org/2000/svg" width="100mm" height="100mm" viewBox="0 0 100 100"><path style="fill:#141e30;fill-opacity:1;stroke:none;stroke-width:.107036" d="M0 0h100v100H0z"/><path style="fill:#1a263a;fill-opacity:1;stroke:none;stroke-width:.264583px;stroke-linecap:butt;stroke-linejoin:miter;stroke-opacity:1" d="M61.74 0c-.459 3.344 2.044 8.17 10.256 9.02 8.212.85 13.842-.475 17.715 10.135 2.795 7.33.598 17.972 10.205 20.788L100 0Z"/><ellipse style="fill:#1a263a;fill-opacity:1;stroke:none;stroke-width:.264583" cx="57.196" cy="38.019" rx="7.884" ry="4.744"/><ellipse style="fill:#1a263a;fill-opacity:1;stroke:none;stroke-width:.486192" cx="38.086" cy="63.209" rx="15.368" ry="8.219"/><ellipse style="fill:#1a263a;fill-opacity:1;stroke:none;stroke-width:.264583" cx="74.435" cy="52.786" rx="7.884" ry="4.744"/><ellipse style="fill:#1a263a;fill-opacity:1;stroke:none;stroke-width:.418772" cx="20.847" cy="15.568" rx="13.23" ry="7.083"/><ellipse style="fill:#1a263a;fill-opacity:1;stroke:none;stroke-width:.162236" cx="35.213" cy="42.229" rx="5.011" ry="2.806"/><ellipse style="fill:#1a263a;fill-opacity:1;stroke:none;stroke-width:.17725" cx="66.684" cy="71.895" rx="5.345" ry="3.14"/><path style="fill:#1a263a;fill-opacity:1;stroke:none;stroke-width:.264583px;stroke-linecap:butt;stroke-linejoin:miter;stroke-opacity:1" d="M38.259 100c.481-3.34-3.36-14.544-11.565-15.449-8.207-.905-14.105-2.228-15.208-11.588-1.103-9.36-1.898-24.49-11.486-27.37V100Z"/><ellipse style="fill:#1a263a;fill-opacity:1;stroke:none;stroke-width:.17725" cx="76.038" cy="19.377" rx="5.345" ry="3.14"/><ellipse style="fill:#1a263a;fill-opacity:1;stroke:none;stroke-width:.17725" cx="81.116" cy="29.801" rx="5.345" ry="3.14"/><ellipse style="fill:#1a263a;fill-opacity:1;stroke:none;stroke-width:.17725" cx="53.855" cy="20.847" rx="5.345" ry="3.14"/><ellipse style="fill:#1a263a;fill-opacity:1;stroke:none;stroke-width:1.09581" ry="19.192" rx="33.43" cy="99.377" cx="89.999"/></svg>