<svg xmlns="http://www.w3.org/2000/svg" width="10mm" height="10mm" viewBox="0 0 10 10"><path style="fill:#1a263a;fill-opacity:1;stroke:none;stroke-width:.16275;stroke-miterlimit:4;stroke-dasharray:none;stroke-opacity:1" d="M1.5 1.471h1v1h-1zM3.088 3.471h1v1h-1zM3.088 5.471h1v1h-1z"/><path style="fill:none;stroke:#000;stroke-width:.264583px;stroke-linecap:butt;stroke-linejoin:miter;stroke-opacity:1" d="M1.974 2.475 1.966 8.02l1.133-.008M1.991 5.995l1.1-.017M1.966 3.995l1.159-.009"/><path style="fill:#1a263a;fill-opacity:1;stroke:none;stroke-width:.16275;stroke-miterlimit:4;stroke-dasharray:none;stroke-opacity:1" d="M3.088 7.471h1v1h-1z"/><path style="fill:none;stroke:#000;stroke-width:.264583px;stroke-linecap:butt;stroke-linejoin:miter;stroke-opacity:1" d="M4.5 3.97h4M4.5 6.003h4M4.5 8.003h4"/><path style="fill:#1a263a;fill-opacity:1;stroke:none;stroke-width:.2;stroke-miterlimit:4;stroke-dasharray:none;stroke-opacity:1" d="m2.34 1.665-.42-.097-.42-.097.294-.316L2.09.84l.126.413Z" transform="matrix(1.62827 -.20496 .39573 .9119 -1.723 .56)"/></svg>